<svg xmlns="http://www.w3.org/2000/svg" viewBox="0 0 1200 680" font-family="Segoe UI, Arial, sans-serif">
  <defs>
    <marker id="arrow" markerWidth="10" markerHeight="7" refX="10" refY="3.5" orient="auto">
      <polygon points="0 0, 10 3.5, 0 7" fill="#555"/>
    </marker>
    <filter id="shadow"><feDropShadow dx="1" dy="2" stdDeviation="2" flood-opacity="0.12"/></filter>
  </defs>
  <rect width="1200" height="680" fill="#f8f9fa"/>

  <text x="600" y="34" text-anchor="middle" font-size="17" font-weight="bold" fill="#1a1a2e">C4 — Componentes: Movements Service | Patrón CQRS</text>
  <text x="600" y="52" text-anchor="middle" font-size="11" fill="#666">Separación de responsabilidades: escritura al Core, lectura desde réplica optimizada</text>
  <line x1="40" y1="62" x2="1160" y2="62" stroke="#ddd" stroke-width="1"/>

  <!-- Boundary -->
  <rect x="40" y="78" width="700" height="480" rx="8" fill="none" stroke="#2e7d32" stroke-width="2" stroke-dasharray="7,3"/>
  <text x="56" y="98" font-size="12" font-weight="bold" fill="#2e7d32">Movements Service [Microservice · Spring Boot]</text>

  <!-- WRITE SIDE -->
  <rect x="60" y="108" width="300" height="200" rx="6" fill="#fff8e1" stroke="#f0a500" stroke-width="1.5" stroke-dasharray="5,3"/>
  <text x="75" y="126" font-size="11" font-weight="bold" fill="#e65100">Write Side (Command)</text>

  <!-- Command Handler -->
  <g transform="translate(75,135)" filter="url(#shadow)">
    <rect width="260" height="75" rx="5" fill="#85bbf0"/>
    <rect x="0" y="0" width="260" height="24" rx="5" fill="#5a9fd4"/>
    <rect x="0" y="16" width="260" height="8" fill="#5a9fd4"/>
    <text x="130" y="14" text-anchor="middle" font-size="11" font-weight="bold" fill="#fff">Command Handler</text>
    <text x="130" y="34" text-anchor="middle" font-size="9" fill="#333">[Component · CQRS Write]</text>
    <text x="130" y="50" text-anchor="middle" font-size="9" fill="#333">Recibe comandos de registro de</text>
    <text x="130" y="63" text-anchor="middle" font-size="9" fill="#333">movimiento. Delega al Core.</text>
  </g>

  <!-- Event Publisher -->
  <g transform="translate(75,228)" filter="url(#shadow)">
    <rect width="260" height="65" rx="5" fill="#85bbf0"/>
    <rect x="0" y="0" width="260" height="24" rx="5" fill="#5a9fd4"/>
    <rect x="0" y="16" width="260" height="8" fill="#5a9fd4"/>
    <text x="130" y="14" text-anchor="middle" font-size="11" font-weight="bold" fill="#fff">Event Publisher</text>
    <text x="130" y="34" text-anchor="middle" font-size="9" fill="#333">[Component]</text>
    <text x="130" y="50" text-anchor="middle" font-size="9" fill="#333">Publica MovementRegistered → SQS</text>
  </g>

  <!-- READ SIDE -->
  <rect x="380" y="108" width="340" height="200" rx="6" fill="#e8f5e9" stroke="#2e7d32" stroke-width="1.5" stroke-dasharray="5,3"/>
  <text x="395" y="126" font-size="11" font-weight="bold" fill="#1b5e20">Read Side (Query)</text>

  <!-- Query Handler -->
  <g transform="translate(395,135)" filter="url(#shadow)">
    <rect width="300" height="75" rx="5" fill="#85bbf0"/>
    <rect x="0" y="0" width="300" height="24" rx="5" fill="#5a9fd4"/>
    <rect x="0" y="16" width="300" height="8" fill="#5a9fd4"/>
    <text x="150" y="14" text-anchor="middle" font-size="11" font-weight="bold" fill="#fff">Query Handler</text>
    <text x="150" y="34" text-anchor="middle" font-size="9" fill="#333">[Component · CQRS Read]</text>
    <text x="150" y="50" text-anchor="middle" font-size="9" fill="#333">Consultas paginadas del historial.</text>
    <text x="150" y="63" text-anchor="middle" font-size="9" fill="#333">Solo lectura, nunca escribe.</text>
  </g>

  <!-- Movements Repository -->
  <g transform="translate(395,228)" filter="url(#shadow)">
    <rect width="300" height="65" rx="5" fill="#85bbf0"/>
    <rect x="0" y="0" width="300" height="24" rx="5" fill="#5a9fd4"/>
    <rect x="0" y="16" width="300" height="8" fill="#5a9fd4"/>
    <text x="150" y="14" text-anchor="middle" font-size="11" font-weight="bold" fill="#fff">Movements Repository</text>
    <text x="150" y="34" text-anchor="middle" font-size="9" fill="#333">[Component · Spring Data JPA]</text>
    <text x="150" y="50" text-anchor="middle" font-size="9" fill="#333">Acceso a la réplica de lectura.</text>
  </g>

  <!-- Movements Controller (entrada) -->
  <g transform="translate(60,345)" filter="url(#shadow)">
    <rect width="660" height="70" rx="5" fill="#85bbf0"/>
    <rect x="0" y="0" width="660" height="24" rx="5" fill="#5a9fd4"/>
    <rect x="0" y="16" width="660" height="8" fill="#5a9fd4"/>
    <text x="330" y="14" text-anchor="middle" font-size="11" font-weight="bold" fill="#fff">Movements Controller</text>
    <text x="330" y="34" text-anchor="middle" font-size="9" fill="#333">[Component · REST API]</text>
    <text x="330" y="50" text-anchor="middle" font-size="9" fill="#333">Enruta GET /movements → Query Handler | POST /movements → Command Handler. JWT validado en API Gateway.</text>
  </g>

  <!-- Cache Manager -->
  <g transform="translate(60,448)" filter="url(#shadow)">
    <rect width="300" height="70" rx="5" fill="#85bbf0"/>
    <rect x="0" y="0" width="300" height="24" rx="5" fill="#5a9fd4"/>
    <rect x="0" y="16" width="300" height="8" fill="#5a9fd4"/>
    <text x="150" y="14" text-anchor="middle" font-size="11" font-weight="bold" fill="#fff">Cache Manager</text>
    <text x="150" y="34" text-anchor="middle" font-size="9" fill="#333">[Component · Cache-Aside]</text>
    <text x="150" y="50" text-anchor="middle" font-size="9" fill="#333">Almacena páginas frecuentes en Redis.</text>
  </g>

  <!-- ══ EXTERNOS ══ -->
  <!-- Core -->
  <g transform="translate(820,140)" filter="url(#shadow)">
    <rect width="170" height="75" rx="5" fill="#999"/>
    <rect x="0" y="0" width="170" height="24" rx="5" fill="#777"/>
    <rect x="0" y="16" width="170" height="8" fill="#777"/>
    <text x="85" y="14" text-anchor="middle" font-size="11" font-weight="bold" fill="#fff">Core Bancario</text>
    <text x="85" y="32" text-anchor="middle" font-size="9" fill="#eee">[Sistema Externo]</text>
    <text x="85" y="48" text-anchor="middle" font-size="9" fill="#eee">Escritura de movimientos</text>
    <text x="85" y="61" text-anchor="middle" font-size="9" fill="#eee">REST / HTTPS</text>
  </g>

  <!-- Read Replica DB -->
  <g transform="translate(820,280)" filter="url(#shadow)">
    <ellipse cx="85" cy="16" rx="85" ry="13" fill="#438dd5"/>
    <rect x="0" y="16" width="170" height="38" fill="#438dd5"/>
    <ellipse cx="85" cy="54" rx="85" ry="13" fill="#2d78c8"/>
    <text x="85" y="37" text-anchor="middle" font-size="9" fill="#fff">RDS PostgreSQL Read Replica</text>
    <text x="85" y="14" text-anchor="middle" font-size="10" font-weight="bold" fill="#fff">BD Lectura</text>
  </g>

  <!-- Redis -->
  <g transform="translate(820,415)" filter="url(#shadow)">
    <ellipse cx="85" cy="16" rx="85" ry="13" fill="#e06c00"/>
    <rect x="0" y="16" width="170" height="38" fill="#e06c00"/>
    <ellipse cx="85" cy="54" rx="85" ry="13" fill="#b85500"/>
    <text x="85" y="37" text-anchor="middle" font-size="9" fill="#fff">ElastiCache Redis</text>
    <text x="85" y="14" text-anchor="middle" font-size="10" font-weight="bold" fill="#fff">Caché</text>
  </g>

  <!-- SQS -->
  <g transform="translate(820,530)" filter="url(#shadow)">
    <rect width="170" height="50" rx="22" fill="#f0a500"/>
    <text x="85" y="22" text-anchor="middle" font-size="10" font-weight="bold" fill="#fff">Amazon SQS</text>
    <text x="85" y="37" text-anchor="middle" font-size="9" fill="#fff">Bus de Eventos</text>
  </g>

  <!-- ══ ARROWS ══ -->
  <line x1="390" y1="380" x2="205" y2="345" stroke="#555" stroke-width="1.2" marker-end="url(#arrow)"/>
  <text x="260" y="370" font-size="9" fill="#333">POST (write)</text>
  <line x1="610" y1="380" x2="545" y2="345" stroke="#555" stroke-width="1.2" marker-end="url(#arrow)"/>
  <text x="530" y="370" font-size="9" fill="#333">GET (read)</text>
  <line x1="205" y1="210" x2="820" y2="178" stroke="#555" stroke-width="1.2" marker-end="url(#arrow)"/>
  <text x="480" y="185" font-size="9" fill="#333">escribe movimiento · REST</text>
  <line x1="205" y1="293" x2="205" y2="345" stroke="#555" stroke-width="1" marker-end="url(#arrow)"/>
  <line x1="335" y1="293" x2="905" y2="530" stroke="#f0a500" stroke-width="1.2" marker-end="url(#arrow)"/>
  <text x="600" y="448" font-size="9" fill="#f0a500">MovementRegistered</text>
  <line x1="545" y1="293" x2="820" y2="310" stroke="#555" stroke-width="1.2" marker-end="url(#arrow)"/>
  <text x="660" y="305" font-size="9" fill="#333">consulta</text>
  <line x1="210" y1="448" x2="820" y2="443" stroke="#e06c00" stroke-width="1.2" stroke-dasharray="4,2" marker-end="url(#arrow)"/>
  <text x="480" y="438" font-size="9" fill="#e06c00">Cache-Aside</text>

  <!-- CQRS annotation -->
  <rect x="40" y="590" width="720" height="72" rx="5" fill="#e3f2fd" stroke="#1168bd" stroke-width="1"/>
  <text x="55" y="608" font-size="11" font-weight="bold" fill="#1168bd">Por qué CQRS aquí:</text>
  <text x="55" y="626" font-size="10" fill="#333">El historial de movimientos tiene altísima frecuencia de lectura vs escritura. Separar el modelo de lectura permite indexar,</text>
  <text x="55" y="642" font-size="10" fill="#333">paginar y cachear sin impactar el Core. La réplica de lectura absorbe el 100% del tráfico de consultas.</text>
  <text x="55" y="658" font-size="10" fill="#333">Alternativa evaluada: acceso directo al Core — descartada por latencia y acoplamiento con sistema legado.</text>
</svg>
