<svg xmlns="http://www.w3.org/2000/svg" viewBox="0 0 1200 700" font-family="Segoe UI, Arial, sans-serif">
  <defs>
    <marker id="arrow" markerWidth="10" markerHeight="7" refX="10" refY="3.5" orient="auto">
      <polygon points="0 0, 10 3.5, 0 7" fill="#555"/>
    </marker>
    <filter id="shadow"><feDropShadow dx="1" dy="2" stdDeviation="2" flood-opacity="0.12"/></filter>
  </defs>
  <rect width="1200" height="700" fill="#f8f9fa"/>

  <text x="600" y="34" text-anchor="middle" font-size="17" font-weight="bold" fill="#1a1a2e">C4 — Componentes: Audit Service | Event Sourcing</text>
  <text x="600" y="52" text-anchor="middle" font-size="11" fill="#666">Registro inmutable de todas las acciones del cliente — append-only, sin updates ni deletes</text>
  <line x1="40" y1="62" x2="1160" y2="62" stroke="#ddd" stroke-width="1"/>

  <!-- Boundary -->
  <rect x="40" y="78" width="700" height="480" rx="8" fill="none" stroke="#2e7d32" stroke-width="2" stroke-dasharray="7,3"/>
  <text x="56" y="98" font-size="12" font-weight="bold" fill="#2e7d32">Audit Service [Microservice · NestJS]</text>

  <!-- Event Consumer -->
  <g transform="translate(60,115)" filter="url(#shadow)">
    <rect width="300" height="90" rx="5" fill="#85bbf0"/>
    <rect x="0" y="0" width="300" height="26" rx="5" fill="#5a9fd4"/>
    <rect x="0" y="18" width="300" height="8" fill="#5a9fd4"/>
    <text x="150" y="16" text-anchor="middle" font-size="11" font-weight="bold" fill="#fff">Event Consumer</text>
    <text x="150" y="38" text-anchor="middle" font-size="9" fill="#333">[Component · SQS Consumer]</text>
    <text x="150" y="54" text-anchor="middle" font-size="9" fill="#333">Suscrito a los topics SQS de todos los</text>
    <text x="150" y="68" text-anchor="middle" font-size="9" fill="#333">servicios de negocio. Long-polling.</text>
    <text x="150" y="82" text-anchor="middle" font-size="9" fill="#333">Idempotente: detecta duplicados por event ID.</text>
  </g>

  <!-- Event Enricher -->
  <g transform="translate(380,115)" filter="url(#shadow)">
    <rect width="260" height="90" rx="5" fill="#85bbf0"/>
    <rect x="0" y="0" width="260" height="26" rx="5" fill="#5a9fd4"/>
    <rect x="0" y="18" width="260" height="8" fill="#5a9fd4"/>
    <text x="130" y="16" text-anchor="middle" font-size="11" font-weight="bold" fill="#fff">Event Enricher</text>
    <text x="130" y="38" text-anchor="middle" font-size="9" fill="#333">[Component]</text>
    <text x="130" y="54" text-anchor="middle" font-size="9" fill="#333">Añade metadatos al evento:</text>
    <text x="130" y="68" text-anchor="middle" font-size="9" fill="#333">timestamp, IP, user-agent,</text>
    <text x="130" y="82" text-anchor="middle" font-size="9" fill="#333">session ID, servicio origen.</text>
  </g>

  <!-- Audit Writer -->
  <g transform="translate(60,255)" filter="url(#shadow)">
    <rect width="300" height="90" rx="5" fill="#2e7d32"/>
    <rect x="0" y="0" width="300" height="26" rx="5" fill="#1b5e20"/>
    <rect x="0" y="18" width="300" height="8" fill="#1b5e20"/>
    <text x="150" y="16" text-anchor="middle" font-size="11" font-weight="bold" fill="#fff">Audit Writer</text>
    <text x="150" y="36" text-anchor="middle" font-size="9" fill="#c8e6c9">[Component · Event Sourcing]</text>
    <text x="150" y="52" text-anchor="middle" font-size="9" fill="#fff">Persiste el evento en DynamoDB.</text>
    <text x="150" y="66" text-anchor="middle" font-size="9" fill="#fff">Operación PutItem únicamente.</text>
    <text x="150" y="80" text-anchor="middle" font-size="9" fill="#fff">NUNCA UpdateItem ni DeleteItem.</text>
  </g>

  <!-- Audit Query API -->
  <g transform="translate(380,255)" filter="url(#shadow)">
    <rect width="260" height="90" rx="5" fill="#85bbf0"/>
    <rect x="0" y="0" width="260" height="26" rx="5" fill="#5a9fd4"/>
    <rect x="0" y="18" width="260" height="8" fill="#5a9fd4"/>
    <text x="130" y="16" text-anchor="middle" font-size="11" font-weight="bold" fill="#fff">Audit Query API</text>
    <text x="130" y="36" text-anchor="middle" font-size="9" fill="#333">[Component · REST Read-Only]</text>
    <text x="130" y="52" text-anchor="middle" font-size="9" fill="#333">Consultas de auditoría para</text>
    <text x="130" y="66" text-anchor="middle" font-size="9" fill="#333">backoffice y entes reguladores.</text>
    <text x="130" y="80" text-anchor="middle" font-size="9" fill="#333">Solo GET. Requiere rol AUDITOR.</text>
  </g>

  <!-- Retention Policy -->
  <g transform="translate(60,390)" filter="url(#shadow)">
    <rect width="580" height="70" rx="5" fill="#85bbf0"/>
    <rect x="0" y="0" width="580" height="26" rx="5" fill="#5a9fd4"/>
    <rect x="0" y="18" width="580" height="8" fill="#5a9fd4"/>
    <text x="290" y="16" text-anchor="middle" font-size="11" font-weight="bold" fill="#fff">Retention Policy Manager</text>
    <text x="290" y="36" text-anchor="middle" font-size="9" fill="#333">[Component · Scheduled Job]</text>
    <text x="290" y="52" text-anchor="middle" font-size="9" fill="#333">Gestiona TTL de ítems en DynamoDB según normativa SFC (10 años mínimo). No elimina, archiva a S3 Glacier.</text>
  </g>

  <!-- Event types -->
  <rect x="60" y="490" width="580" height="55" rx="5" fill="#fff8e1" stroke="#f0a500" stroke-width="1"/>
  <text x="75" y="508" font-size="10" font-weight="bold" fill="#e65100">Eventos consumidos:</text>
  <text x="75" y="524" font-size="9" fill="#333">LoginAttempt · MovementRegistered · TransferCompleted · TransferFailed · PaymentCompleted · OnboardingCompleted · SessionExpired</text>
  <text x="75" y="537" font-size="9" fill="#333">PasswordChanged · ProfileUpdated · FraudAlertTriggered</text>

  <!-- ══ EXTERNOS ══ -->
  <!-- SQS -->
  <g transform="translate(840,115)" filter="url(#shadow)">
    <rect width="160" height="55" rx="25" fill="#f0a500"/>
    <text x="80" y="26" text-anchor="middle" font-size="10" font-weight="bold" fill="#fff">Amazon SQS</text>
    <text x="80" y="42" text-anchor="middle" font-size="9" fill="#fff">Todos los eventos</text>
  </g>

  <!-- DynamoDB -->
  <g transform="translate(840,250)" filter="url(#shadow)">
    <ellipse cx="80" cy="16" rx="80" ry="13" fill="#438dd5"/>
    <rect x="0" y="16" width="160" height="50" fill="#438dd5"/>
    <ellipse cx="80" cy="66" rx="80" ry="13" fill="#2d78c8"/>
    <text x="80" y="38" text-anchor="middle" font-size="9" fill="#fff">Amazon DynamoDB</text>
    <text x="80" y="52" text-anchor="middle" font-size="9" fill="#ddeeff">Append-Only · TTL</text>
    <text x="80" y="14" text-anchor="middle" font-size="10" font-weight="bold" fill="#fff">BD Auditoría</text>
  </g>

  <!-- S3 Glacier -->
  <g transform="translate(840,400)" filter="url(#shadow)">
    <rect width="160" height="65" rx="5" fill="#999"/>
    <rect x="0" y="0" width="160" height="24" rx="5" fill="#777"/>
    <rect x="0" y="16" width="160" height="8" fill="#777"/>
    <text x="80" y="14" text-anchor="middle" font-size="11" font-weight="bold" fill="#fff">S3 Glacier</text>
    <text x="80" y="34" text-anchor="middle" font-size="9" fill="#eee">[Archivo Frío]</text>
    <text x="80" y="50" text-anchor="middle" font-size="9" fill="#eee">Historial &gt;2 años</text>
    <text x="80" y="62" text-anchor="middle" font-size="9" fill="#eee">costo mínimo</text>
  </g>

  <!-- ══ ARROWS ══ -->
  <line x1="840" y1="143" x2="360" y2="160" stroke="#f0a500" stroke-width="1.5" marker-end="url(#arrow)"/>
  <text x="560" y="138" font-size="9" fill="#f0a500">consume eventos (long-poll)</text>
  <line x1="360" y1="160" x2="500" y2="160" stroke="#555" stroke-width="1.2" marker-end="url(#arrow)"/>
  <text x="375" y="156" font-size="9" fill="#333">enriquece</text>
  <line x1="210" y1="205" x2="210" y2="255" stroke="#555" stroke-width="1.5" marker-end="url(#arrow)"/>
  <line x1="510" y1="205" x2="510" y2="255" stroke="#555" stroke-width="1.5" marker-end="url(#arrow)"/>
  <line x1="210" y1="345" x2="920" y2="263" stroke="#555" stroke-width="1.2" marker-end="url(#arrow)"/>
  <text x="540" y="288" font-size="9" fill="#333">PutItem · append-only</text>
  <line x1="350" y1="455" x2="920" y2="413" stroke="#555" stroke-width="1.2" marker-end="url(#arrow)"/>
  <text x="580" y="440" font-size="9" fill="#333">archiva → S3 Glacier</text>

  <!-- Annotation -->
  <rect x="40" y="596" width="720" height="84" rx="5" fill="#fce4ec" stroke="#c62828" stroke-width="1"/>
  <text x="55" y="614" font-size="11" font-weight="bold" fill="#c62828">Marco normativo aplicado:</text>
  <text x="55" y="630" font-size="10" fill="#333">· Circular SFC 052/2007: logs de acceso y operaciones deben conservarse mínimo 10 años.</text>
  <text x="55" y="646" font-size="10" fill="#333">· PCI-DSS v4.0 Req. 10: audit trail inmutable de todas las operaciones sobre datos de tarjeta.</text>
  <text x="55" y="662" font-size="10" fill="#333">· Ley 1581/2012 (Habeas Data): trazabilidad de accesos a datos personales. Disponible para</text>
  <text x="55" y="676" font-size="10" fill="#333">  titular y Superintendencia de Industria y Comercio (SIC) a solicitud.</text>
</svg>
